<?xml version="1.0" encoding="UTF-8"?>
<svg version="1.1" xmlns="http://www.w3.org/2000/svg" width="1024" height="559">
<path d="M0 0 C13.53 0 27.06 0 41 0 C41 2.31 41 4.62 41 7 C45.29 7 49.58 7 54 7 C54 8.98 54 10.96 54 13 C56.64 13 59.28 13 62 13 C62 15.31 62 17.62 62 20 C66.29 20 70.58 20 75 20 C75 22.31 75 24.62 75 27 C77.31 27 79.62 27 82 27 C82 29.31 82 31.62 82 34 C84.31 34 86.62 34 89 34 C89 36.31 89 38.62 89 41 C91.31 41 93.62 41 96 41 C96 43.31 96 45.62 96 48 C100.62 48 105.24 48 110 48 C110 50.31 110 52.62 110 55 C112.31 55 114.62 55 117 55 C117 56.98 117 58.96 117 61 C119.31 61 121.62 61 124 61 C124 63.31 124 65.62 124 68 C126.31 68 128.62 68 131 68 C131 70.31 131 72.62 131 75 C135.29 75 139.58 75 144 75 C144 77.31 144 79.62 144 82 C146.31 82 148.62 82 151 82 C151 84.31 151 86.62 151 89 C153.31 89 155.62 89 158 89 C158 91.31 158 93.62 158 96 C162.62 96 167.24 96 172 96 C172 98.31 172 100.62 172 103 C174.31 103 176.62 103 179 103 C179 105.31 179 107.62 179 110 C181.31 110 183.62 110 186 110 C186 112.31 186 114.62 186 117 C190.29 117 194.58 117 199 117 C199 119.31 199 121.62 199 124 C201.31 124 203.62 124 206 124 C206 125.98 206 127.96 206 130 C207.98 130 209.96 130 212 130 C212.33 132.31 212.66 134.62 213 137 C215.31 137 217.62 137 220 137 C220 138.98 220 140.96 220 143 C222.31 143.33 224.62 143.66 227 144 C227 146.31 227 148.62 227 151 C229.31 151 231.62 151 234 151 C234 155.62 234 160.24 234 165 C236.31 165 238.62 165 241 165 C241 180.84 241 196.68 241 213 C238.69 213 236.38 213 234 213 C234 215.31 234 217.62 234 220 C231.69 220 229.38 220 227 220 C227 224.62 227 229.24 227 234 C224.69 234 222.38 234 220 234 C220 235.98 220 237.96 220 240 C217.69 240 215.38 240 213 240 C213 242.31 213 244.62 213 247 C208.38 247 203.76 247 199 247 C199 249.31 199 251.62 199 254 C183.16 254 167.32 254 151 254 C151 251.69 151 249.38 151 247 C148.69 247 146.38 247 144 247 C144 245.02 144 243.04 144 241 C139.38 241 134.76 241 130 241 C130 238.69 130 236.38 130 234 C127.69 234 125.38 234 123 234 C123 231.69 123 229.38 123 227 C121.02 227 119.04 227 117 227 C117 224.69 117 222.38 117 220 C112.38 220 107.76 220 103 220 C103 217.69 103 215.38 103 213 C100.69 213 98.38 213 96 213 C96 210.69 96 208.38 96 206 C93.69 206 91.38 206 89 206 C89 203.69 89 201.38 89 199 C84.71 199 80.42 199 76 199 C76 196.69 76 194.38 76 192 C73.69 192 71.38 192 69 192 C69 189.69 69 187.38 69 185 C66.69 185 64.38 185 62 185 C62 183.02 62 181.04 62 179 C57.38 179 52.76 179 48 179 C48 176.69 48 174.38 48 172 C45.69 172 43.38 172 41 172 C41 169.69 41 167.38 41 165 C38.69 165 36.38 165 34 165 C34 162.69 34 160.38 34 158 C31.69 158 29.38 158 27 158 C27 155.69 27 153.38 27 151 C22.38 151 17.76 151 13 151 C13 148.69 13 146.38 13 144 C10.69 144 8.38 144 6 144 C5.505 140.535 5.505 140.535 5 137 C3.35 137 1.7 137 0 137 C0 135.02 0 133.04 0 131 C-0.59167969 131.01160156 -1.18335938 131.02320313 -1.79296875 131.03515625 C-6.00231785 131.08322386 -9.8922333 131.06006883 -14 130 C-14 127.69 -14 125.38 -14 123 C-16.31 123 -18.62 123 -21 123 C-21 120.69 -21 118.38 -21 116 C-23.31 116 -25.62 116 -28 116 C-28 111.71 -28 107.42 -28 103 C-30.31 103 -32.62 103 -35 103 C-35 100.69 -35 98.38 -35 96 C-37.31 96 -39.62 96 -42 96 C-42 77.85 -42 59.7 -42 41 C-39.69 41 -37.38 41 -35 41 C-35 38.69 -35 36.38 -35 34 C-32.69 34 -30.38 34 -28 34 C-28 29.38 -28 24.76 -28 20 C-25.69 20 -23.38 20 -21 20 C-21 17.69 -21 15.38 -21 13 C-16.71 13 -12.42 13 -8 13 C-8 11.02 -8 9.04 -8 7 C-5.36 7 -2.72 7 0 7 C0 4.69 0 2.38 0 0 Z " fill="#9189EA" transform="translate(223,205)"/>
<path d="M0 0 C13.53 0 27.06 0 41 0 C41 1.98 41 3.96 41 6 C43.31 6 45.62 6 48 6 C48 8.31 48 10.62 48 13 C52.62 13 57.24 13 62 13 C62 15.31 62 17.62 62 20 C64.31 20 66.62 20 69 20 C69 22.31 69 24.62 69 27 C73.29 27 77.58 27 82 27 C82 29.31 82 31.62 82 34 C84.31 34 86.62 34 89 34 C89 36.31 89 38.62 89 41 C91.31 41 93.62 41 96 41 C96 43.31 96 45.62 96 48 C98.31 48 100.62 48 103 48 C103 49.98 103 51.96 103 54 C107.62 54 112.24 54 117 54 C117 56.31 117 58.62 117 61 C119.31 61 121.62 61 124 61 C124 63.31 124 65.62 124 68 C126.31 68 128.62 68 131 68 C131 70.31 131 72.62 131 75 C133.31 75 135.62 75 138 75 C138 77.31 138 79.62 138 82 C142.29 82 146.58 82 151 82 C151 84.31 151 86.62 151 89 C153.31 89 155.62 89 158 89 C158 91.31 158 93.62 158 96 C160.31 96 162.62 96 165 96 C165 98.31 165 100.62 165 103 C169.62 103 174.24 103 179 103 C179 105.31 179 107.62 179 110 C179.969375 109.979375 180.93875 109.95875 181.9375 109.9375 C185 110 185 110 186 111 C186.04080783 112.99958364 186.04254356 115.00045254 186 117 C188.31 117 190.62 117 193 117 C193 118.98 193 120.96 193 123 C197.62 123 202.24 123 207 123 C207 125.31 207 127.62 207 130 C208.98 130 210.96 130 213 130 C213 132.31 213 134.62 213 137 C215.31 137 217.62 137 220 137 C220 141.62 220 146.24 220 151 C222.31 151 224.62 151 227 151 C227 153.31 227 155.62 227 158 C229.31 158 231.62 158 234 158 C234 176.15 234 194.3 234 213 C231.69 213 229.38 213 227 213 C227 215.31 227 217.62 227 220 C224.69 220 222.38 220 220 220 C220 224.62 220 229.24 220 234 C218.02 234 216.04 234 214 234 C214 236.31 214 238.62 214 241 C209.05 241 204.1 241 199 241 C199 242.98 199 244.96 199 247 C196.69 247 194.38 247 192 247 C192 249.31 192 251.62 192 254 C178.47 254 164.94 254 151 254 C151 252.02 151 250.04 151 248 C146.71 247.67 142.42 247.34 138 247 C138 244.69 138 242.38 138 240 C135.69 240 133.38 240 131 240 C131 237.69 131 235.38 131 233 C126.38 233 121.76 233 117 233 C117 228.71 117 224.42 117 220 C112.38 220 107.76 220 103 220 C103 217.69 103 215.38 103 213 C100.69 213 98.38 213 96 213 C96 210.69 96 208.38 96 206 C93.69 206 91.38 206 89 206 C89 203.69 89 201.38 89 199 C84.71 199 80.42 199 76 199 C76 196.69 76 194.38 76 192 C73.69 192 71.38 192 69 192 C69 189.69 69 187.38 69 185 C66.36 185 63.72 185 61 185 C61 183.02 61 181.04 61 179 C56.71 179 52.42 179 48 179 C47.505 175.535 47.505 175.535 47 172 C45.02 172 43.04 172 41 172 C41 169.69 41 167.38 41 165 C38.69 165 36.38 165 34 165 C34 162.69 34 160.38 34 158 C29.38 158 24.76 158 20 158 C20 155.69 20 153.38 20 151 C17.69 151 15.38 151 13 151 C13 148.69 13 146.38 13 144 C11.02 144 9.04 144 7 144 C7 142.02 7 140.04 7 138 C2.38 137.67 -2.24 137.34 -7 137 C-7 135.02 -7 133.04 -7 131 C-9.31 131 -11.62 131 -14 131 C-14 128.69 -14 126.38 -14 124 C-16.31 124 -18.62 124 -21 124 C-21 121.69 -21 119.38 -21 117 C-25.62 117 -30.24 117 -35 117 C-35 112.38 -35 107.76 -35 103 C-37.31 103 -39.62 103 -42 103 C-42 98.71 -42 94.42 -42 90 C-44.31 90 -46.62 90 -49 90 C-49 76.14 -49 62.28 -49 48 C-46.69 48 -44.38 48 -42 48 C-42 43.38 -42 38.76 -42 34 C-39.69 34 -37.38 34 -35 34 C-35 29.38 -35 24.76 -35 20 C-32.69 20 -30.38 20 -28 20 C-28 18.02 -28 16.04 -28 14 C-23.38 14 -18.76 14 -14 14 C-14 11.69 -14 9.38 -14 7 C-9.38 7 -4.76 7 0 7 C0 4.69 0 2.38 0 0 Z " fill="#BF57E4" transform="translate(609,88)"/>
<path d="M0 0 C2.31 0 4.62 0 7 0 C7 2.31 7 4.62 7 7 C9.31 7 11.62 7 14 7 C14 9.31 14 11.62 14 14 C16.31 14 18.62 14 21 14 C21 16.31 21 18.62 21 21 C22.98 21 24.96 21 27 21 C27 23.31 27 25.62 27 28 C31.62 28 36.24 28 41 28 C41 30.31 41 32.62 41 35 C43.31 35 45.62 35 48 35 C48 37.31 48 39.62 48 42 C50.31 42 52.62 42 55 42 C55 43.98 55 45.96 55 48 C57.31 48 59.62 48 62 48 C62 50.31 62 52.62 62 55 C62.969375 54.979375 63.93875 54.95875 64.9375 54.9375 C68 55 68 55 69 56 C69 57.98 69 59.96 69 62 C73.62 62 78.24 62 83 62 C83 64.31 83 66.62 83 69 C87.62 69 92.24 69 97 69 C97 71.31 97 73.62 97 76 C105.91 76 114.82 76 124 76 C124 78.31 124 80.62 124 83 C119.38 83 114.76 83 110 83 C110 85.31 110 87.62 110 90 C107.69 90 105.38 90 103 90 C103 92.31 103 94.62 103 97 C101.02 97 99.04 97 97 97 C97.0309375 98.4540625 97.0309375 98.4540625 97.0625 99.9375 C97 103 97 103 96 104 C93.64686445 104.07271741 91.29166332 104.08370868 88.9375 104.0625 C87.00197266 104.04896484 87.00197266 104.04896484 85.02734375 104.03515625 C84.02832031 104.02355469 83.02929688 104.01195312 82 104 C82 106.31 82 108.62 82 111 C80.02 111 78.04 111 76 111 C76 113.31 76 115.62 76 118 C73.69 118 71.38 118 69 118 C69 119.98 69 121.96 69 124 C64.38 124 59.76 124 55 124 C55 126.31 55 128.62 55 131 C52.69 131 50.38 131 48 131 C48 133.31 48 135.62 48 138 C45.69 138 43.38 138 41 138 C41 140.31 41 142.62 41 145 C36.38 145 31.76 145 27 145 C27 147.31 27 149.62 27 152 C25.02 152 23.04 152 21 152 C21 154.31 21 156.62 21 159 C18.69 159 16.38 159 14 159 C14.020625 159.969375 14.04125 160.93875 14.0625 161.9375 C14 165 14 165 13 166 C10.64686445 166.07271741 8.29166332 166.08370868 5.9375 166.0625 C4.64714844 166.05347656 3.35679687 166.04445313 2.02734375 166.03515625 C0.52880859 166.01775391 0.52880859 166.01775391 -1 166 C-1 167.98 -1 169.96 -1 172 C-2.98 172 -4.96 172 -7 172 C-7 174.31 -7 176.62 -7 179 C-22.84 179 -38.68 179 -55 179 C-55 176.69 -55 174.38 -55 172 C-59.62 172 -64.24 172 -69 172 C-69 169.69 -69 167.38 -69 165 C-71.31 165 -73.62 165 -76 165 C-76 163.02 -76 161.04 -76 159 C-78.31 159 -80.62 159 -83 159 C-83 154.38 -83 149.76 -83 145 C-84.98 145 -86.96 145 -89 145 C-89.33 142.69 -89.66 140.38 -90 138 C-92.31 138 -94.62 138 -97 138 C-97 122.16 -97 106.32 -97 90 C-94.69 90 -92.38 90 -90 90 C-90 85.38 -90 80.76 -90 76 C-87.69 76 -85.38 76 -83 76 C-83 73.69 -83 71.38 -83 69 C-80.69 69 -78.38 69 -76 69 C-76 66.69 -76 64.38 -76 62 C-73.69 62 -71.38 62 -69 62 C-69 59.69 -69 57.38 -69 55 C-66.69 55 -64.38 55 -62 55 C-62 53.02 -62 51.04 -62 49 C-59.69 49 -57.38 49 -55 49 C-55 46.69 -55 44.38 -55 42 C-50.38 42 -45.76 42 -41 42 C-41 39.69 -41 37.38 -41 35 C-38.69 35 -36.38 35 -34 35 C-34 32.69 -34 30.38 -34 28 C-31.69 28 -29.38 28 -27 28 C-27 25.69 -27 23.38 -27 21 C-22.71 21 -18.42 21 -14 21 C-14 18.69 -14 16.38 -14 14 C-11.69 14 -9.38 14 -7 14 C-7 11.69 -7 9.38 -7 7 C-4.69 7 -2.38 7 0 7 C0 4.69 0 2.38 0 0 Z " fill="#8B4490" transform="translate(657,280)"/>
<path d="M0 0 C1.45702971 0.00502424 2.9140611 0.00958551 4.37109375 0.01367188 C7.9140977 0.02460612 11.45703797 0.04182 15 0.0625 C15 2.0425 15 4.0225 15 6.0625 C19.62 6.0625 24.24 6.0625 29 6.0625 C29 8.3725 29 10.6825 29 13.0625 C33.62 13.0625 38.24 13.0625 43 13.0625 C43 15.0425 43 17.0225 43 19.0625 C45.31 19.0625 47.62 19.0625 50 19.0625 C50 23.6825 50 28.3025 50 33.0625 C52.31 33.0625 54.62 33.0625 57 33.0625 C57 37.6825 57 42.3025 57 47.0625 C59.31 47.0625 61.62 47.0625 64 47.0625 C64 60.5925 64 74.1225 64 88.0625 C61.36 88.0625 58.72 88.0625 56 88.0625 C56.03480469 88.68898438 56.06960938 89.31546875 56.10546875 89.9609375 C56.13253906 90.77820313 56.15960938 91.59546875 56.1875 92.4375 C56.22230469 93.24960938 56.25710938 94.06171875 56.29296875 94.8984375 C56.19628906 95.61257812 56.09960938 96.32671875 56 97.0625 C52.77208445 99.2144437 51.71599191 99.26336443 48 99.0625 C48.16371094 99.76761719 48.32742188 100.47273438 48.49609375 101.19921875 C49.31019339 105.82507172 49.05651165 110.37203271 49 115.0625 C43.06 115.5575 43.06 115.5575 37 116.0625 C36.67 118.0425 36.34 120.0225 36 122.0625 C33.69 122.0625 31.38 122.0625 29 122.0625 C29 124.3725 29 126.6825 29 129.0625 C26.69 129.0625 24.38 129.0625 22 129.0625 C22 131.3725 22 133.6825 22 136.0625 C17.71 136.0625 13.42 136.0625 9 136.0625 C9 138.3725 9 140.6825 9 143.0625 C6.69 143.0625 4.38 143.0625 2 143.0625 C2 145.3725 2 147.6825 2 150.0625 C-0.31 150.0625 -2.62 150.0625 -5 150.0625 C-5 152.3725 -5 154.6825 -5 157.0625 C-9.62 157.0625 -14.24 157.0625 -19 157.0625 C-19 158.3825 -19 159.7025 -19 161.0625 C-20.1446875 161.2790625 -20.1446875 161.2790625 -21.3125 161.5 C-24.08172908 162.0257594 -24.08172908 162.0257594 -27 163.0625 C-26.67 163.3925 -26.34 163.7225 -26 164.0625 C-25.95919217 166.06208364 -25.95745644 168.06295254 -26 170.0625 C-28.70879335 171.41689668 -31.00933268 171.12751451 -34 171.0625 C-34 172.0525 -34 173.0425 -34 174.0625 C-34.845625 173.753125 -35.69125 173.44375 -36.5625 173.125 C-40.0497854 172.04711179 -43.38177535 171.49668696 -47 171.0625 C-47 168.7525 -47 166.4425 -47 164.0625 C-48.98 164.0625 -50.96 164.0625 -53 164.0625 C-53 161.7525 -53 159.4425 -53 157.0625 C-55.31 157.0625 -57.62 157.0625 -60 157.0625 C-60 154.7525 -60 152.4425 -60 150.0625 C-62.31 150.0625 -64.62 150.0625 -67 150.0625 C-67 147.7525 -67 145.4425 -67 143.0625 C-71.62 143.0625 -76.24 143.0625 -81 143.0625 C-81 140.7525 -81 138.4425 -81 136.0625 C-83.31 136.0625 -85.62 136.0625 -88 136.0625 C-88 134.0825 -88 132.1025 -88 130.0625 C-89.98 129.7325 -91.96 129.4025 -94 129.0625 C-94 126.4225 -94 123.7825 -94 121.0625 C-94.66 121.0625 -95.32 121.0625 -96 121.0625 C-96 120.4025 -96 119.7425 -96 119.0625 C-96.99 119.0625 -97.98 119.0625 -99 119.0625 C-99.33 117.7425 -99.66 116.4225 -100 115.0625 C-101.60681641 115.07990234 -101.60681641 115.07990234 -103.24609375 115.09765625 C-104.64322743 115.10703299 -106.04036299 115.11613331 -107.4375 115.125 C-108.14455078 115.13337891 -108.85160156 115.14175781 -109.58007812 115.15039062 C-111.38693559 115.15903588 -113.19387603 115.11470011 -115 115.0625 C-115.33 114.7325 -115.66 114.4025 -116 114.0625 C-116 112.4125 -116 110.7625 -116 109.0625 C-120.29 109.0625 -124.58 109.0625 -129 109.0625 C-129 106.7525 -129 104.4425 -129 102.0625 C-135.93 102.0625 -142.86 102.0625 -150 102.0625 C-150 99.7525 -150 97.4425 -150 95.0625 C-149.31292969 94.97613281 -148.62585938 94.88976562 -147.91796875 94.80078125 C-142.25076742 94.07830411 -142.25076742 94.07830411 -137.9375 90.6875 C-136.8815484 87.86604368 -136.8815484 87.86604368 -136 84.0625 C-130.06 83.0725 -130.06 83.0725 -124 82.0625 C-123.67 79.7525 -123.34 77.4425 -123 75.0625 C-120.36 74.7325 -117.72 74.4025 -115 74.0625 C-115 72.0825 -115 70.1025 -115 68.0625 C-112.36 68.0625 -109.72 68.0625 -107 68.0625 C-106.525625 67.093125 -106.05125 66.12375 -105.5625 65.125 C-104 62.0625 -104 62.0625 -103 61.0625 C-102.63239269 58.73432036 -102.29758419 56.4006615 -102 54.0625 C-97.38 54.0625 -92.76 54.0625 -88 54.0625 C-88 51.7525 -88 49.4425 -88 47.0625 C-85.69 47.0625 -83.38 47.0625 -81 47.0625 C-81 44.7525 -81 42.4425 -81 40.0625 C-78.69 40.0625 -76.38 40.0625 -74 40.0625 C-74 37.7525 -74 35.4425 -74 33.0625 C-71.69 33.0625 -69.38 33.0625 -67 33.0625 C-67 30.7525 -67 28.4425 -67 26.0625 C-62.38 26.0625 -57.76 26.0625 -53 26.0625 C-53 25.0725 -53 24.0825 -53 23.0625 C-52.01 23.0625 -51.02 23.0625 -50 23.0625 C-50 22.0725 -50 21.0825 -50 20.0625 C-49.01 19.7325 -48.02 19.4025 -47 19.0625 C-46.67 17.0825 -46.34 15.1025 -46 13.0625 C-41.38 13.0625 -36.76 13.0625 -32 13.0625 C-32 10.7525 -32 8.4425 -32 6.0625 C-29.69 6.0625 -27.38 6.0625 -25 6.0625 C-24.67 4.4125 -24.34 2.7625 -24 1.0625 C-16.03350151 -0.2548767 -8.04805625 -0.04839426 0 0 Z " fill="#731EB6" transform="translate(400,88.9375)"/>
<path d="M0 0 C0.33 0 0.66 0 1 0 C1 1.98 1 3.96 1 6 C3.31 6 5.62 6 8 6 C8 7.98 8 9.96 8 12 C12.62 12 17.24 12 22 12 C22 14.31 22 16.62 22 19 C23.98 19 25.96 19 28 19 C28 21.31 28 23.62 28 26 C30.31 26 32.62 26 35 26 C35 30.62 35 35.24 35 40 C37.31 40 39.62 40 42 40 C42 42.31 42 44.62 42 47 C44.31 47 46.62 47 49 47 C49 65.15 49 83.3 49 102 C46.36 102.33 43.72 102.66 41 103 C41 101.02 41 99.04 41 97 C42.65 97.66 44.3 98.32 46 99 C45.88013001 94.25337983 45.75581227 89.50690253 45.62768555 84.76049805 C45.5848491 83.15180481 45.54314801 81.54308087 45.50268555 79.93432617 C45.38655535 75.33356302 45.24997872 70.73434821 45.07794189 66.13531494 C45.00360719 64.09882347 44.9426247 62.06185767 44.88232422 60.02490234 C44.82705566 58.85523926 44.77178711 57.68557617 44.71484375 56.48046875 C44.67351318 55.46235107 44.63218262 54.4442334 44.58959961 53.39526367 C44.24622624 50.82979448 44.24622624 50.82979448 41.95532227 49.6574707 C40.98743774 49.33202271 40.98743774 49.33202271 40 49 C40 48.34 40 47.68 40 47 C38.02 47 36.04 47 34 47 C32.21590198 43.93753253 31.77119979 41.77920727 31.875 38.25 C31.89304687 37.45078125 31.91109375 36.6515625 31.9296875 35.828125 C31.95289063 35.22484375 31.97609375 34.6215625 32 34 C30.9275 34.020625 29.855 34.04125 28.75 34.0625 C25 33 25 33 23.6796875 31.03515625 C22.66406059 28.71426068 21.78572489 26.40786661 21 24 C20.67 23.01 20.34 22.02 20 21 C20.16011121 18.29876894 20.60440608 15.68124769 21 13 C20.02417969 13.02320313 19.04835938 13.04640625 18.04296875 13.0703125 C16.77066406 13.08835938 15.49835937 13.10640625 14.1875 13.125 C12.29064453 13.15980469 12.29064453 13.15980469 10.35546875 13.1953125 C7 13 7 13 4 11 C0.87478167 10.83300768 0.87478167 10.83300768 -2 11 C-2.33 9.68 -2.66 8.36 -3 7 C-2.01 7 -1.02 7 0 7 C0 4.69 0 2.38 0 0 Z " fill="#AF5ECD" transform="translate(794,199)"/>
<path d="M0 0 C4.62 0 9.24 0 14 0 C14 2.31 14 4.62 14 7 C18.62 7 23.24 7 28 7 C28 8.98 28 10.96 28 13 C30.31 13 32.62 13 35 13 C35 17.62 35 22.24 35 27 C37.31 27 39.62 27 42 27 C42 31.62 42 36.24 42 41 C44.31 41 46.62 41 49 41 C49 54.53 49 68.06 49 82 C46.69 82 44.38 82 42 82 C42.66 79.03 43.32 76.06 44 73 C44.66 73 45.32 73 46 73 C46.0580772 68.91672643 46.09362249 64.83355917 46.125 60.75 C46.14175781 59.59113281 46.15851563 58.43226563 46.17578125 57.23828125 C46.18222656 56.12324219 46.18867188 55.00820312 46.1953125 53.859375 C46.20578613 52.83295898 46.21625977 51.80654297 46.22705078 50.74902344 C45.99521865 47.94210968 45.52172389 46.34718417 44 44 C43.32453125 43.53980469 42.6490625 43.07960937 41.953125 42.60546875 C39.28134009 40.40926156 39.22590135 38.68346791 38.75 35.3125 C38.60046875 34.31863281 38.4509375 33.32476562 38.296875 32.30078125 C38.19890625 31.54152344 38.1009375 30.78226563 38 30 C36.35 30 34.7 30 33 30 C31.24252386 25.49646738 30.80705592 21.82360189 31 17 C30.34 17 29.68 17 29 17 C28.67 16.34 28.34 15.68 28 15 C27.01 15.33 26.02 15.66 25 16 C24.67 14.35 24.34 12.7 24 11 C23.25234375 10.95101562 22.5046875 10.90203125 21.734375 10.8515625 C20.74953125 10.77679688 19.7646875 10.70203125 18.75 10.625 C17.77546875 10.55539063 16.8009375 10.48578125 15.796875 10.4140625 C13.10366811 10.01534751 11.33036721 9.36492937 9 8 C9 6.02 9 4.04 9 2 C6.03 2 3.06 2 0 2 C0 1.34 0 0.68 0 0 Z " fill="#6926A1" transform="translate(415,95)"/>
<path d="M0 0 C1.98 0 3.96 0 6 0 C4.25 4.875 4.25 4.875 2 6 C1.67 6.99 1.34 7.98 1 9 C0.25234375 8.979375 -0.4953125 8.95875 -1.265625 8.9375 C-4.35277891 9.00215244 -7.01783258 9.18119681 -10 10 C-11.6807104 11.93195062 -12.39948284 13.57891141 -13.21875 15.9921875 C-14.12172737 18.31283933 -15.08295567 19.42811694 -17 21 C-20.1875 22.1875 -20.1875 22.1875 -23 23 C-23 23.66 -23 24.32 -23 25 C-26.3 25 -29.6 25 -33 25 C-33.33 26.32 -33.66 27.64 -34 29 C-34.66 29.66 -35.32 30.32 -36 31 C-36.99 31 -37.98 31 -39 31 C-39.33 32.98 -39.66 34.96 -40 37 C-40.886875 37.20625 -41.77375 37.4125 -42.6875 37.625 C-47.53152162 39.63572595 -50.06163722 42.94994627 -52.2265625 47.6796875 C-54 50 -54 50 -57.13671875 50.48828125 C-58.89435547 50.40126953 -58.89435547 50.40126953 -60.6875 50.3125 C-61.86699219 50.26738281 -63.04648437 50.22226563 -64.26171875 50.17578125 C-65.61716797 50.08876953 -65.61716797 50.08876953 -67 50 C-67.33 51.32 -67.66 52.64 -68 54 C-68.66 54 -69.32 54 -70 54 C-70 52.02 -70 50.04 -70 48 C-65.38 48 -60.76 48 -56 48 C-56 45.69 -56 43.38 -56 41 C-53.69 41 -51.38 41 -49 41 C-49 38.69 -49 36.38 -49 34 C-46.69 34 -44.38 34 -42 34 C-42 31.69 -42 29.38 -42 27 C-39.69 27 -37.38 27 -35 27 C-35 24.69 -35 22.38 -35 20 C-30.38 20 -25.76 20 -21 20 C-21 19.01 -21 18.02 -21 17 C-20.01 17 -19.02 17 -18 17 C-18 16.01 -18 15.02 -18 14 C-17.01 13.67 -16.02 13.34 -15 13 C-14.67 11.02 -14.34 9.04 -14 7 C-9.38 7 -4.76 7 0 7 C0 4.69 0 2.38 0 0 Z " fill="#66269D" transform="translate(368,95)"/>
<path d="M0 0 C13.2 0 26.4 0 40 0 C40 1.98 40 3.96 40 6 C42.31 6 44.62 6 47 6 C47 8.31 47 10.62 47 13 C51.62 13 56.24 13 61 13 C61 15.31 61 17.62 61 20 C58.39533418 19.52342708 55.79128286 19.04385281 53.1875 18.5625 C52.44951172 18.42779297 51.71152344 18.29308594 50.95117188 18.15429688 C47.88684924 17.58580263 44.96071047 16.98690349 42 16 C42 15.34 42 14.68 42 14 C41.01 14 40.02 14 39 14 C38.87625 13.0925 38.7525 12.185 38.625 11.25 C38.1059208 7.76141428 38.1059208 7.76141428 36 4 C24.45 4 12.9 4 1 4 C0.67 2.68 0.34 1.36 0 0 Z " fill="#B65DD3" transform="translate(610,88)"/>
<path d="M0 0 C2.31 0 4.62 0 7 0 C7 2.31 7 4.62 7 7 C7.969375 6.979375 8.93875 6.95875 9.9375 6.9375 C13 7 13 7 14 8 C14 9.98 14 11.96 14 14 C18.62 14 23.24 14 28 14 C28 16.31 28 18.62 28 21 C32.62 21 37.24 21 42 21 C42 23.31 42 25.62 42 28 C50.91 28 59.82 28 69 28 C69 30.31 69 32.62 69 35 C64.38 35 59.76 35 55 35 C55.495 34.01 55.495 34.01 56 33 C62.625 32.875 62.625 32.875 66 34 C66 33.01 66 32.02 66 31 C57.42 31 48.84 31 40 31 C39.505 27.535 39.505 27.535 39 24 C34.71 24 30.42 24 26 24 C26.33 21.03 26.66 18.06 27 15 C22.05 15.33 17.1 15.66 12 16 C12 15.34 12 14.68 12 14 C10.906875 13.9175 9.81375 13.835 8.6875 13.75 C5 13 5 13 3.0625 11.1875 C2 9 2 9 2 5 C2.66 5 3.32 5 4 5 C4 4.34 4 3.68 4 3 C4.66 3 5.32 3 6 3 C6 2.34 6 1.68 6 1 C4.02 1 2.04 1 0 1 C0 0.67 0 0.34 0 0 Z " fill="#7B4584" transform="translate(712,328)"/>
<path d="M0 0 C0.33 0 0.66 0 1 0 C1.26218749 3.14624993 1.24754367 4.61837017 -0.5 7.3125 C-0.995 7.869375 -1.49 8.42625 -2 9 C-0.741875 9.144375 0.51625 9.28875 1.8125 9.4375 C4.42667123 9.73748686 6.47439892 10.15813297 9 11 C9.33 12.98 9.66 14.96 10 17 C11.2375 16.855625 12.475 16.71125 13.75 16.5625 C14.44609375 16.48128906 15.1421875 16.40007812 15.859375 16.31640625 C18.32991923 15.98698863 18.32991923 15.98698863 22 15 C22.66 17.97 23.32 20.94 24 24 C29.94 24.99 29.94 24.99 36 26 C36 26.33 36 26.66 36 27 C33.68756208 27.02685412 31.3750373 27.04632841 29.0625 27.0625 C27.77472656 27.07410156 26.48695313 27.08570313 25.16015625 27.09765625 C22 27 22 27 21 26 C21 24.35 21 22.7 21 21 C16.71 21 12.42 21 8 21 C8 18.69 8 16.38 8 14 C1.07 14 -5.86 14 -13 14 C-13 11.69 -13 9.38 -13 7 C-11.96939453 6.87044922 -11.96939453 6.87044922 -10.91796875 6.73828125 C-5.14136488 6.0295943 -5.14136488 6.0295943 -0.9375 2.375 C-0.628125 1.59125 -0.31875 0.8075 0 0 Z " fill="#6725A1" transform="translate(263,177)"/>
<path d="M0 0 C4.62 0 9.24 0 14 0 C13.67 1.65 13.34 3.3 13 5 C12.01 5 11.02 5 10 5 C10 4.01 10 3.02 10 2 C8.02 2.33 6.04 2.66 4 3 C4 3.99 4 4.98 4 6 C3.01 6 2.02 6 1 6 C1 7.32 1 8.64 1 10 C-2.3 10.33 -5.6 10.66 -9 11 C-9.33 12.32 -9.66 13.64 -10 15 C-11.65 15.33 -13.3 15.66 -15 16 C-15 16.66 -15 17.32 -15 18 C-15.99 18 -16.98 18 -18 18 C-18 21.3 -18 24.6 -18 28 C-19.65 28.66 -21.3 29.32 -23 30 C-23 29.34 -23 28.68 -23 28 C-24.32 28 -25.64 28 -27 28 C-27 32.29 -27 36.58 -27 41 C-27.33 41 -27.66 41 -28 41 C-28 36.38 -28 31.76 -28 27 C-25.69 27 -23.38 27 -21 27 C-21 22.38 -21 17.76 -21 13 C-18.69 13 -16.38 13 -14 13 C-14 11.02 -14 9.04 -14 7 C-9.38 7 -4.76 7 0 7 C0 4.69 0 2.38 0 0 Z " fill="#B663D2" transform="translate(595,95)"/>
<path d="M0 0 C0.66 0.33 1.32 0.66 2 1 C1.67 4.63 1.34 8.26 1 12 C2.32 11.01 3.64 10.02 5 9 C6.60725635 12.21451269 6.05748185 15.43612536 6 19 C2.64998162 20.11667279 0.40745188 19.76286236 -3 19 C-3.01981934 19.66829834 -3.03963867 20.33659668 -3.06005859 21.02514648 C-3.47680146 34.4449575 -4.11572005 47.70027649 -6 61 C-4.02 61 -2.04 61 0 61 C0 61.33 0 61.66 0 62 C-2.31 62 -4.62 62 -7 62 C-7 46.16 -7 30.32 -7 14 C-4.69 14 -2.38 14 0 14 C0 9.38 0 4.76 0 0 Z " fill="#7C4282" transform="translate(567,356)"/>
<path d="M0 0 C0.99 0 1.98 0 3 0 C3 4.62 3 9.24 3 14 C1.02 14 -0.96 14 -3 14 C-3 16.31 -3 18.62 -3 21 C-7.95 21 -12.9 21 -18 21 C-18 22.98 -18 24.96 -18 27 C-20.31 27 -22.62 27 -25 27 C-24.67 25.68 -24.34 24.36 -24 23 C-23.34 23 -22.68 23 -22 23 C-21.87625 22.38125 -21.7525 21.7625 -21.625 21.125 C-21 19 -21 19 -19 17 C-16.8359375 16.8046875 -16.8359375 16.8046875 -14.375 16.875 C-13.14910156 16.90207031 -13.14910156 16.90207031 -11.8984375 16.9296875 C-10.95871094 16.96449219 -10.95871094 16.96449219 -10 17 C-9.67 15.68 -9.34 14.36 -9 13 C-8.01 13.33 -7.02 13.66 -6 14 C-5.67 13.01 -5.34 12.02 -5 11 C-3.35 11 -1.7 11 0 11 C-0.12568359 9.93458984 -0.12568359 9.93458984 -0.25390625 8.84765625 C-0.35574219 7.92855469 -0.45757813 7.00945312 -0.5625 6.0625 C-0.66691406 5.14597656 -0.77132812 4.22945313 -0.87890625 3.28515625 C-0.91886719 2.53105469 -0.95882812 1.77695312 -1 1 C-0.67 0.67 -0.34 0.34 0 0 Z " fill="#B567D1" transform="translate(826,308)"/>
<path d="M0 0 C0.33 0 0.66 0 1 0 C1 2.31 1 4.62 1 7 C-1.31 7 -3.62 7 -6 7 C-6 9.31 -6 11.62 -6 14 C-7.98 14 -9.96 14 -12 14 C-11.979375 14.969375 -11.95875 15.93875 -11.9375 16.9375 C-12 20 -12 20 -13 21 C-15.35313555 21.07271741 -17.70833668 21.08370868 -20.0625 21.0625 C-21.35285156 21.05347656 -22.64320313 21.04445313 -23.97265625 21.03515625 C-24.97167969 21.02355469 -25.97070312 21.01195312 -27 21 C-27 23.31 -27 25.62 -27 28 C-28.98 28 -30.96 28 -33 28 C-33 30.31 -33 32.62 -33 35 C-35.31 35 -37.62 35 -40 35 C-40 34.67 -40 34.34 -40 34 C-38.02 34 -36.04 34 -34 34 C-34 31.69 -34 29.38 -34 27 C-32.68 26.67 -31.36 26.34 -30 26 C-29.34 23.03 -28.68 20.06 -28 17 C-23.38 17 -18.76 17 -14 17 C-14 13.7 -14 10.4 -14 7 C-13.01 8.32 -12.02 9.64 -11 11 C-9.02128384 9.209733 -7.87923272 7.76944428 -6.625 5.375 C-5 3 -5 3 -2.3125 2.1875 C-1.549375 2.125625 -0.78625 2.06375 0 2 C0 1.34 0 0.68 0 0 Z " fill="#76407C" transform="translate(766,363)"/>
<path d="M0 0 C1.98 0 3.96 0 6 0 C5.68144043 0.94528564 5.36288086 1.89057129 5.03466797 2.86450195 C3.68912236 7.59927124 3.57446715 12.2708596 3.4453125 17.16796875 C3.41645966 18.1252034 3.38760681 19.08243805 3.35787964 20.06867981 C3.3010734 22.08138023 3.2492501 24.09422682 3.20214844 26.10717773 C3.1249617 29.1890291 3.01616595 32.26877335 2.90625 35.34960938 C2.85483153 37.30984592 2.80528728 39.27013272 2.7578125 41.23046875 C2.72156769 42.15031052 2.68532288 43.07015228 2.64797974 44.01786804 C2.49565167 49.20670528 2.49565167 49.20670528 5.01513672 53.6105957 C5.6701416 54.06909912 6.32514648 54.52760254 7 55 C4.69 55 2.38 55 0 55 C0 36.85 0 18.7 0 0 Z " fill="#9189D1" transform="translate(181,246)"/>
<path d="M0 0 C2.31 0 4.62 0 7 0 C7 2.31 7 4.62 7 7 C9.31 7 11.62 7 14 7 C14 9.31 14 11.62 14 14 C13.34 14 12.68 14 12 14 C12 13.34 12 12.68 12 12 C9.03 12 6.06 12 3 12 C2.34 13.98 1.68 15.96 1 18 C-0.9375 17.6875 -0.9375 17.6875 -3 17 C-4 14 -4 14 -3 11 C-4.32 11 -5.64 11 -7 11 C-7 9.68 -7 8.36 -7 7 C-4.69 7 -2.38 7 0 7 C0 4.69 0 2.38 0 0 Z " fill="#7E4484" transform="translate(657,280)"/>
<path d="M0 0 C1.98 0 3.96 0 6 0 C5.67 0.99 5.34 1.98 5 3 C4.34 3 3.68 3 3 3 C3 3.66 3 4.32 3 5 C2.34 5 1.68 5 1 5 C1 16.88 1 28.76 1 41 C3.31 41 5.62 41 8 41 C8 44.63 8 48.26 8 52 C10.475 51.505 10.475 51.505 13 51 C14.32 51.66 15.64 52.32 17 53 C17 57.62 17 62.24 17 67 C18.44375 66.95875 19.8875 66.9175 21.375 66.875 C23.8359375 66.8046875 23.8359375 66.8046875 26 67 C26.66 67.66 27.32 68.32 28 69 C23.38 69 18.76 69 14 69 C14 64.38 14 59.76 14 55 C11.69 55 9.38 55 7 55 C7 50.71 7 46.42 7 42 C4.69 42 2.38 42 0 42 C0 28.14 0 14.28 0 0 Z " fill="#A15BBD" transform="translate(560,136)"/>
<path d="M0 0 C2.31 0 4.62 0 7 0 C7 2.31 7 4.62 7 7 C9.31 7 11.62 7 14 7 C14 9.31 14 11.62 14 14 C16.31 14 18.62 14 21 14 C21 16.31 21 18.62 21 21 C25.29 21 29.58 21 34 21 C34 23.31 34 25.62 34 28 C36.31 28 38.62 28 41 28 C41 30.31 41 32.62 41 35 C39.25 35.75 39.25 35.75 37 36 C34.75 34.375 34.75 34.375 33 32 C32.75 29.25 32.75 29.25 33 27 C32.34 27 31.68 27 31 27 C30.67 25.68 30.34 24.36 30 23 C26.04 23.495 26.04 23.495 22 24 C22 23.34 22 22.68 22 22 C21.34 22 20.68 22 20 22 C20 19.69 20 17.38 20 15 C17.69 15 15.38 15 13 15 C13 12.69 13 10.38 13 8 C10.03 8 7.06 8 4 8 C0 1.125 0 1.125 0 0 Z " fill="#B768D2" transform="translate(726,149)"/>
<path d="M0 0 C0.66 0.66 1.32 1.32 2 2 C3.32 2 4.64 2 6 2 C6 2.66 6 3.32 6 4 C6.8245166 3.83701416 7.6490332 3.67402832 8.49853516 3.50610352 C12.36378846 2.94741783 16.12959534 2.87414664 20.0234375 2.90234375 C20.76961334 2.9037587 21.51578918 2.90517365 22.28457642 2.90663147 C24.64809318 2.91219126 27.01151227 2.92473611 29.375 2.9375 C30.98567571 2.9425202 32.59635291 2.9470822 34.20703125 2.95117188 C38.13805799 2.96214749 42.06901248 2.97938404 46 3 C46 2.01 46 1.02 46 0 C46.66 0 47.32 0 48 0 C48 1.98 48 3.96 48 6 C32.16 6 16.32 6 0 6 C0 4.02 0 2.04 0 0 Z " fill="#7E4686" transform="translate(602,453)"/>
<path d="M0 0 C1.05509766 -0.00451172 2.11019531 -0.00902344 3.19726562 -0.01367188 C4.19693359 -0.01173828 5.19660156 -0.00980469 6.2265625 -0.0078125 C7.56968506 -0.00612061 7.56968506 -0.00612061 8.93994141 -0.00439453 C11.27660036 0.11977122 13.19274103 0.27352111 15.375 1.125 C15.87 2.61 15.87 2.61 16.375 4.125 C2.185 4.125 -12.005 4.125 -26.625 4.125 C-26.625 3.135 -26.625 2.145 -26.625 1.125 C-17.74301648 0.24931148 -8.91970233 0.01607154 0 0 Z " fill="#9087D6" transform="translate(405.625,454.875)"/>
<path d="M0 0 C0.33 0 0.66 0 1 0 C1 1.98 1 3.96 1 6 C3.31 6 5.62 6 8 6 C8 8.31 8 10.62 8 13 C8.83660156 12.9278125 9.67320312 12.855625 10.53515625 12.78125 C19.3919256 12.07506241 28.11837426 11.88804673 37 12 C37.495 13.98 37.495 13.98 38 16 C34.04 16.495 34.04 16.495 30 17 C29.67 20.3 29.34 23.6 29 27 C28.67 27 28.34 27 28 27 C28 24.69 28 22.38 28 20 C25.69 20 23.38 20 21 20 C21 18.02 21 16.04 21 14 C16.38 14 11.76 14 7 14 C7 11.69 7 9.38 7 7 C4.69 7 2.38 7 0 7 C0 4.69 0 2.38 0 0 Z " fill="#8078C9" transform="translate(346,432)"/>
<path d="M0 0 C1.98 0 3.96 0 6 0 C6 1.98 6 3.96 6 6 C7.98 6 9.96 6 12 6 C12.33 8.31 12.66 10.62 13 13 C15.31 13 17.62 13 20 13 C20 14.98 20 16.96 20 19 C22.31 19.33 24.62 19.66 27 20 C26.34 20.99 25.68 21.98 25 23 C23.0546875 23.29296875 23.0546875 23.29296875 20.875 23.1875 C19.59625 23.125625 18.3175 23.06375 17 23 C17 20.36 17 17.72 17 15 C16.443125 15.20625 15.88625 15.4125 15.3125 15.625 C11.6289388 16.22233425 9.18164475 14.81492741 6.1875 12.75 C4.45025235 10.18984557 4.79921164 8.01182533 5 5 C3.68 4.67 2.36 4.34 1 4 C0.67 2.68 0.34 1.36 0 0 Z " fill="#928BDC" transform="translate(423,329)"/>
<path d="M0 0 C13.53 0 27.06 0 41 0 C41 2.31 41 4.62 41 7 C39.68 7 38.36 7 37 7 C36.505 6.01 36.505 6.01 36 5 C32.98771397 4.52782185 32.98771397 4.52782185 29.33984375 4.3671875 C28.34314415 4.30484421 28.34314415 4.30484421 27.3263092 4.24124146 C25.19713888 4.11014681 23.067463 3.99243917 20.9375 3.875 C19.49669187 3.78863884 18.05593543 3.70141055 16.61523438 3.61328125 C13.07736829 3.39877692 9.5389295 3.19627411 6 3 C6 2.34 6 1.68 6 1 C4.02 1 2.04 1 0 1 C0 0.67 0 0.34 0 0 Z " fill="#8E88D7" transform="translate(223,205)"/>
<path d="M0 0 C2.475 0.495 2.475 0.495 5 1 C5 1.99 5 2.98 5 4 C5.515625 3.67 6.03125 3.34 6.5625 3 C9 2 9 2 16 2 C16 17.84 16 33.68 16 50 C13.69 50 11.38 50 9 50 C9 49.67 9 49.34 9 49 C10.98 49 12.96 49 15 49 C14.96970703 48.21987549 14.93941406 47.43975098 14.90820312 46.63598633 C14.76957736 43.02825075 14.63477195 39.42038152 14.5 35.8125 C14.42845703 33.97268555 14.42845703 33.97268555 14.35546875 32.09570312 C14.05861406 24.05942249 13.9391496 16.04154898 14 8 C10.7 8 7.4 8 4 8 C4 7.34 4 6.68 4 6 C3.34 6 2.68 6 2 6 C1.34 4.02 0.68 2.04 0 0 Z " fill="#8881CE" transform="translate(448,368)"/>
<path d="M0 0 C2.475 0.495 2.475 0.495 5 1 C5 1.66 5 2.32 5 3 C9.29 3.33 13.58 3.66 18 4 C18.33 5.98 18.66 7.96 19 10 C20.95163118 11.43637698 20.95163118 11.43637698 23 12 C23 14.31 23 16.62 23 19 C24.65 19 26.3 19 28 19 C28 21.31 28 23.62 28 26 C32.29 26 36.58 26 41 26 C41 26.33 41 26.66 41 27 C36.38 27 31.76 27 27 27 C27 24.69 27 22.38 27 20 C24.69 20 22.38 20 20 20 C20 17.69 20 15.38 20 13 C18.02 13 16.04 13 14 13 C14 11.02 14 9.04 14 7 C7.07 6.505 7.07 6.505 0 6 C0 4.02 0 2.04 0 0 Z " fill="#B85DD7" transform="translate(602,219)"/>
<path d="M0 0 C0.99 0 1.98 0 3 0 C3 0.99 3 1.98 3 3 C8.09066226 2.90658639 13.18084204 2.80052089 18.27099609 2.68261719 C20.00334407 2.64428659 21.73577274 2.60944094 23.46826172 2.578125 C25.95569749 2.53256235 28.44257566 2.47455497 30.9296875 2.4140625 C31.70682098 2.40251129 32.48395447 2.39096008 33.28463745 2.37905884 C37.60650975 2.41206232 37.60650975 2.41206232 41 0 C41 1.98 41 3.96 41 6 C27.47 6 13.94 6 0 6 C0 4.02 0 2.04 0 0 Z " fill="#AE65CB" transform="translate(760,336)"/>
<path d="M0 0 C0.99 0.33 1.98 0.66 3 1 C3 3.97 3 6.94 3 10 C3.81984375 9.96519531 4.6396875 9.93039062 5.484375 9.89453125 C6.56203125 9.86746094 7.6396875 9.84039062 8.75 9.8125 C9.81734375 9.77769531 10.8846875 9.74289062 11.984375 9.70703125 C15.32849074 10.03191296 16.68710342 10.59166836 19 13 C19 13.99 19 14.98 19 16 C19.99 16.33 20.98 16.66 22 17 C24.12508244 20.18762365 24.5020163 22.26512223 25 26 C23.68 26 22.36 26 21 26 C21 23.69 21 21.38 21 19 C18.69 19 16.38 19 14 19 C14 16.69 14 14.38 14 12 C9.38 12 4.76 12 0 12 C0 8.04 0 4.08 0 0 Z " fill="#B865D5" transform="translate(726,309)"/>
<path d="M0 0 C2.31 0 4.62 0 7 0 C7 2.31 7 4.62 7 7 C11.29 7 15.58 7 20 7 C20 8.65 20 10.3 20 12 C19.09636719 11.91621094 18.19273437 11.83242187 17.26171875 11.74609375 C16.08222656 11.64425781 14.90273438 11.54242188 13.6875 11.4375 C12.51574219 11.33308594 11.34398437 11.22867188 10.13671875 11.12109375 C6.96967425 10.81422566 6.96967425 10.81422566 4 12 C3.95875 11.4225 3.9175 10.845 3.875 10.25 C2.55934042 6.86687535 0.03447636 5.80777315 -3 4 C-2.01 3.67 -1.02 3.34 0 3 C0 2.01 0 1.02 0 0 Z " fill="#B65AD4" transform="translate(671,108)"/>
<path d="M0 0 C2.31 0 4.62 0 7 0 C7 2.31 7 4.62 7 7 C9.31 7 11.62 7 14 7 C14 9.31 14 11.62 14 14 C18.29 14 22.58 14 27 14 C27 16.31 27 18.62 27 21 C29.31 21 31.62 21 34 21 C34 21.33 34 21.66 34 22 C29.05 22.495 29.05 22.495 24 23 C24 22.34 24 21.68 24 21 C21.69 21.33 19.38 21.66 17 22 C19 20 19 20 22 19 C18.7 18.67 15.4 18.34 12 18 C12.33 14.7 12.66 11.4 13 8 C10.69 8 8.38 8 6 8 C6 5.69 6 3.38 6 1 C4.02 1 2.04 1 0 1 C0 0.67 0 0.34 0 0 Z " fill="#7E78C1" transform="translate(340,266)"/>
<path d="M0 0 C0.33 0 0.66 0 1 0 C1 3.63 1 7.26 1 11 C-4.94 11.495 -4.94 11.495 -11 12 C-11.33 13.98 -11.66 15.96 -12 18 C-14.31 18 -16.62 18 -19 18 C-19 20.31 -19 22.62 -19 25 C-20.65 25 -22.3 25 -24 25 C-23.67 21.7 -23.34 18.4 -23 15 C-19.535 14.505 -19.535 14.505 -16 14 C-15.67 13.01 -15.34 12.02 -15 11 C-10.40783236 8.18544564 -5.19012541 8.81859756 0 9 C0 6.03 0 3.06 0 0 Z " fill="#67259F" transform="translate(448,193)"/>
<path d="M0 0 C1.65 0 3.3 0 5 0 C5 2.31 5 4.62 5 7 C7.31 7 9.62 7 12 7 C12 8.98 12 10.96 12 13 C16.62 13 21.24 13 26 13 C26 15.31 26 17.62 26 20 C25.34 20 24.68 20 24 20 C23.505 17.525 23.505 17.525 23 15 C21.37509046 14.97301811 19.75005367 14.95361243 18.125 14.9375 C17.22007812 14.92589844 16.31515625 14.91429687 15.3828125 14.90234375 C12.9831415 14.83750743 12.9831415 14.83750743 11 16 C6.51603993 12.68576864 4.20447484 10.66103175 3 5 C3 3.68 3 2.36 3 1 C2.01 0.67 1.02 0.34 0 0 Z " fill="#AD64C7" transform="translate(700,129)"/>
<path d="M0 0 C2.31 0 4.62 0 7 0 C7 2.31 7 4.62 7 7 C9.31 7 11.62 7 14 7 C14 9.31 14 11.62 14 14 C14.66 14 15.32 14 16 14 C16 14.66 16 15.32 16 16 C18.64 15.67 21.28 15.34 24 15 C24 15.66 24 16.32 24 17 C22.02 17.66 20.04 18.32 18 19 C18 18.34 18 17.68 18 17 C16.35 17.66 14.7 18.32 13 19 C11 17 11 17 10.875 13.875 C10.91625 12.92625 10.9575 11.9775 11 11 C9.02 10.34 7.04 9.68 5 9 C4.67 7.02 4.34 5.04 4 3 C2.68 3 1.36 3 0 3 C0 2.01 0 1.02 0 0 Z " fill="#B567D3" transform="translate(732,157)"/>
<path d="M0 0 C13.2 0 26.4 0 40 0 C40 1.98 40 3.96 40 6 C42.31 6 44.62 6 47 6 C47 8.31 47 10.62 47 13 C51.62 13 56.24 13 61 13 C61 15.31 61 17.62 61 20 C60.67 20 60.34 20 60 20 C60 18.02 60 16.04 60 14 C55.38 14 50.76 14 46 14 C46 11.69 46 9.38 46 7 C44.906875 7.0825 43.81375 7.165 42.6875 7.25 C41.470625 7.1675 40.25375 7.085 39 7 C38.52925049 6.3495874 38.05850098 5.6991748 37.57348633 5.02905273 C36.17765659 2.8046238 36.17765659 2.8046238 33.7644043 2.41040039 C32.89726807 2.36906982 32.03013184 2.32773926 31.13671875 2.28515625 C30.15880371 2.2298877 29.18088867 2.17461914 28.17333984 2.11767578 C27.1261377 2.07884277 26.07893555 2.04000977 25 2 C23.93088379 1.9469873 22.86176758 1.89397461 21.76025391 1.83935547 C18.44482803 1.68301831 15.12947832 1.55603291 11.8125 1.4375 C10.09836914 1.37272461 10.09836914 1.37272461 8.34960938 1.30664062 C5.56649189 1.20183704 2.78330535 1.09966701 0 1 C0 0.67 0 0.34 0 0 Z " fill="#9657B2" transform="translate(610,88)"/>
<path d="M0 0 C1.98 0 3.96 0 6 0 C6 4.95 6 9.9 6 15 C4.68 15.33 3.36 15.66 2 16 C2 15.01 2 14.02 2 13 C0.35 12.67 -1.3 12.34 -3 12 C-3 10.68 -3 9.36 -3 8 C-2.01 8 -1.02 8 0 8 C0 5.36 0 2.72 0 0 Z " fill="#938BD7" transform="translate(451,356)"/>
<path d="M0 0 C0.33 0 0.66 0 1 0 C1 1.98 1 3.96 1 6 C2.98 6 4.96 6 7 6 C7.33 6.99 7.66 7.98 8 9 C10.54698226 9.88040196 12.95191274 10.5759039 15.5625 11.1875 C16.62887695 11.45336914 16.62887695 11.45336914 17.71679688 11.72460938 C19.47505269 12.16122323 21.23720155 12.58210434 23 13 C23 13.66 23 14.32 23 15 C23.99 15.33 24.98 15.66 26 16 C27.1875 18.0625 27.1875 18.0625 28 20 C25.36 20 22.72 20 20 20 C20 18.02 20 16.04 20 14 C15.71 14 11.42 14 7 14 C6.67 11.69 6.34 9.38 6 7 C4.02 7 2.04 7 0 7 C0 4.69 0 2.38 0 0 Z " fill="#914FAF" transform="translate(650,253)"/>
<path d="M0 0 C0.99 0 1.98 0 3 0 C3 1.32 3 2.64 3 4 C3.99 4 4.98 4 6 4 C6 4.66 6 5.32 6 6 C9.80628773 8.06728448 13.67992148 9.05122439 17.85546875 10.12109375 C18.56316406 10.41113281 19.27085937 10.70117188 20 11 C20.33 11.99 20.66 12.98 21 14 C16.38 14 11.76 14 7 14 C7 11.69 7 9.38 7 7 C4.69 7 2.38 7 0 7 C0 4.69 0 2.38 0 0 Z " fill="#B05ECE" transform="translate(705,294)"/>
<path d="M0 0 C0.66 0 1.32 0 2 0 C2.33 10.56 2.66 21.12 3 32 C0.69 32 -1.62 32 -4 32 C-3.34 29.03 -2.68 26.06 -2 23 C-1.34 23 -0.68 23 0 23 C0 15.41 0 7.82 0 0 Z " fill="#6D24A9" transform="translate(461,145)"/>
<path d="M0 0 C2.475 0.495 2.475 0.495 5 1 C5 1.66 5 2.32 5 3 C7.64 3 10.28 3 13 3 C13 5.31 13 7.62 13 10 C17.29 10 21.58 10 26 10 C22.79619983 12.13586678 21.98060033 12.23132175 18.3125 12.125 C17.50425781 12.10695312 16.69601562 12.08890625 15.86328125 12.0703125 C14.94095703 12.03550781 14.94095703 12.03550781 14 12 C14 12.66 14 13.32 14 14 C13.34 14 12.68 14 12 14 C12.33 14.99 12.66 15.98 13 17 C12.34 17 11.68 17 11 17 C9.5393715 14.35261084 9 13.10551666 9 10 C9.66 10 10.32 10 11 10 C11 8.35 11 6.7 11 5 C8.02148438 5.09765625 8.02148438 5.09765625 5.04296875 5.1953125 C3 5 3 5 0 3 C0 2.01 0 1.02 0 0 Z " fill="#8A83D7" transform="translate(272,215)"/>
<path d="M0 0 C0.33 0 0.66 0 1 0 C1 1.98 1 3.96 1 6 C3.31 6 5.62 6 8 6 C8 7.98 8 9.96 8 12 C12.62 12 17.24 12 22 12 C22 14.31 22 16.62 22 19 C23.98 19 25.96 19 28 19 C28 19.33 28 19.66 28 20 C25.69 20 23.38 20 21 20 C21 17.69 21 15.38 21 13 C20.02417969 13.02320313 19.04835938 13.04640625 18.04296875 13.0703125 C16.77066406 13.08835938 15.49835937 13.10640625 14.1875 13.125 C12.29064453 13.15980469 12.29064453 13.15980469 10.35546875 13.1953125 C7 13 7 13 4 11 C0.87478167 10.83300768 0.87478167 10.83300768 -2 11 C-2.33 9.68 -2.66 8.36 -3 7 C-2.01 7 -1.02 7 0 7 C0 4.69 0 2.38 0 0 Z " fill="#8E4AA9" transform="translate(794,199)"/>
<path d="M0 0 C0.33 0.99 0.66 1.98 1 3 C-3.29 3 -7.58 3 -12 3 C-12 5.31 -12 7.62 -12 10 C-14.31 10 -16.62 10 -19 10 C-19 12.31 -19 14.62 -19 17 C-20.98 17 -22.96 17 -25 17 C-24.01 16.67 -23.02 16.34 -22 16 C-21.67 13.69 -21.34 11.38 -21 9 C-19.35 8.67 -17.7 8.34 -16 8 C-15.690625 7.030625 -15.38125 6.06125 -15.0625 5.0625 C-14 2 -14 2 -13 1 C-10.81707226 0.76518307 -8.62796826 0.58636677 -6.4375 0.4375 C-4.64119141 0.31181641 -4.64119141 0.31181641 -2.80859375 0.18359375 C-1.41833984 0.09271484 -1.41833984 0.09271484 0 0 Z " fill="#642499" transform="translate(421,222)"/>
<path d="M0 0 C0.33 0 0.66 0 1 0 C1 2.31 1 4.62 1 7 C-3.62 7 -8.24 7 -13 7 C-13 8.32 -13 9.64 -13 11 C-14.32 10.67 -15.64 10.34 -17 10 C-16.835 9.236875 -16.67 8.47375 -16.5 7.6875 C-15.90854604 4.96403764 -15.90854604 4.96403764 -16 2 C-10.72 2.66 -5.44 3.32 0 4 C0 2.68 0 1.36 0 0 Z " fill="#6C24A8" transform="translate(394,239)"/>
<path d="M0 0 C2.31 0 4.62 0 7 0 C7 2.31 7 4.62 7 7 C9.31 7 11.62 7 14 7 C14 9.31 14 11.62 14 14 C16.31 14 18.62 14 21 14 C21 16.31 21 18.62 21 21 C25.29 21 29.58 21 34 21 C34 21.33 34 21.66 34 22 C29.38 22 24.76 22 20 22 C20 19.69 20 17.38 20 15 C17.69 15 15.38 15 13 15 C13 12.69 13 10.38 13 8 C10.03 8 7.06 8 4 8 C0 1.125 0 1.125 0 0 Z " fill="#8C4EA4" transform="translate(726,149)"/>
<path d="M0 0 C1.485 0.99 1.485 0.99 3 2 C3 2.66 3 3.32 3 4 C4.65 4 6.3 4 8 4 C8.33 5.65 8.66 7.3 9 9 C10.2375 8.9175 11.475 8.835 12.75 8.75 C14.859375 8.609375 14.859375 8.609375 17 9 C18.32 10.32 19.64 11.64 21 13 C16.38 13 11.76 13 7 13 C7 10.69 7 8.38 7 6 C4.69 6 2.38 6 0 6 C0 4.02 0 2.04 0 0 Z " fill="#66289E" transform="translate(312,219)"/>
<path d="M0 0 C1.32 0.33 2.64 0.66 4 1 C3.67 1.66 3.34 2.32 3 3 C2.34 3 1.68 3 1 3 C1 4.98 1 6.96 1 9 C0.401875 9.061875 -0.19625 9.12375 -0.8125 9.1875 C-3.8732389 10.32434588 -4.43639846 12.2127103 -6 15 C-9.2811302 17.18742014 -11.33084356 17.54442806 -15.1875 18.125 C-16.27417969 18.29257813 -17.36085938 18.46015625 -18.48046875 18.6328125 C-19.31191406 18.75398438 -20.14335937 18.87515625 -21 19 C-21 18.01 -21 17.02 -21 16 C-17.04 15.34 -13.08 14.68 -9 14 C-8.67 11.69 -8.34 9.38 -8 7 C-5.36 6.67 -2.72 6.34 0 6 C0 4.02 0 2.04 0 0 Z " fill="#6C28A4" transform="translate(285,157)"/>
<path d="M0 0 C0.99 0 1.98 0 3 0 C3 4.62 3 9.24 3 14 C1.02 14 -0.96 14 -3 14 C-3 16.31 -3 18.62 -3 21 C-7.62 21 -12.24 21 -17 21 C-17 20.67 -17 20.34 -17 20 C-12.71 20 -8.42 20 -4 20 C-4 17.36 -4 14.72 -4 12 C-3.01 11.67 -2.02 11.34 -1 11 C-1.01160156 10.28972656 -1.02320313 9.57945312 -1.03515625 8.84765625 C-1.04869141 7.46900391 -1.04869141 7.46900391 -1.0625 6.0625 C-1.07410156 5.14597656 -1.08570313 4.22945313 -1.09765625 3.28515625 C-1 1 -1 1 0 0 Z " fill="#9D59B7" transform="translate(826,308)"/>
<path d="M0 0 C1.98 0 3.96 0 6 0 C5.68289063 0.54140625 5.36578125 1.0828125 5.0390625 1.640625 C3.81692026 4.4157149 3.59056564 6.73208098 3.375 9.75 C3.30023437 10.73484375 3.22546875 11.7196875 3.1484375 12.734375 C3.09945312 13.48203125 3.05046875 14.2296875 3 15 C1.35 15.66 -0.3 16.32 -2 17 C-2 16.34 -2 15.68 -2 15 C-3.32 15 -4.64 15 -6 15 C-6 19.29 -6 23.58 -6 28 C-6.33 28 -6.66 28 -7 28 C-7 23.38 -7 18.76 -7 14 C-4.69 14 -2.38 14 0 14 C0 9.38 0 4.76 0 0 Z " fill="#A35CBE" transform="translate(574,108)"/>
<path d="M0 0 C0.99 0.495 0.99 0.495 2 1 C4.37123246 1.23029956 6.74741943 1.41119942 9.125 1.5625 C10.40632812 1.64628906 11.68765625 1.73007813 13.0078125 1.81640625 C14.48894531 1.90728516 14.48894531 1.90728516 16 2 C15.67 3.98 15.34 5.96 15 8 C7.57142857 8.28571429 7.57142857 8.28571429 4 6 C4 5.34 4 4.68 4 4 C3.01 4 2.02 4 1 4 C0.67 2.68 0.34 1.36 0 0 Z " fill="#B863D3" transform="translate(799,210)"/>
<path d="M0 0 C1.44319692 0.90767102 2.87934106 1.82656106 4.3125 2.75 C5.11300781 3.26046875 5.91351563 3.7709375 6.73828125 4.296875 C10.30589302 6.98336677 12.21293072 9.59241204 13 14 C10.69 14 8.38 14 6 14 C6 11.69 6 9.38 6 7 C4.02 7 2.04 7 0 7 C0 4.69 0 2.38 0 0 Z " fill="#612693" transform="translate(347,246)"/>
<path d="M0 0 C1.98 0 3.96 0 6 0 C5.67 0.99 5.34 1.98 5 3 C5.92683594 3.12117187 6.85367187 3.24234375 7.80859375 3.3671875 C9.60490234 3.61855469 9.60490234 3.61855469 11.4375 3.875 C12.63246094 4.03742188 13.82742188 4.19984375 15.05859375 4.3671875 C16.51458984 4.68042969 16.51458984 4.68042969 18 5 C18.33 5.66 18.66 6.32 19 7 C12.73 7 6.46 7 0 7 C0 4.69 0 2.38 0 0 Z " fill="#612995" transform="translate(250,184)"/>
<path d="M0 0 C0.33 0.66 0.66 1.32 1 2 C4.3 1.67 7.6 1.34 11 1 C11 2.65 11 4.3 11 6 C11.66 6 12.32 6 13 6 C13 6.66 13 7.32 13 8 C15.31 8 17.62 8 20 8 C20.33 8.66 20.66 9.32 21 10 C16.38 10 11.76 10 7 10 C7 7.69 7 5.38 7 3 C4.69 3 2.38 3 0 3 C0 2.01 0 1.02 0 0 Z " fill="#857BC6" transform="translate(319,415)"/>
<path d="M0 0 C5.24736842 0 5.24736842 0 8 1 C10.597135 4.26287947 11.69610559 8.08831676 13 12 C11.02 12 9.04 12 7 12 C7 9.69 7 7.38 7 5 C4.69 5 2.38 5 0 5 C0 3.35 0 1.7 0 0 Z " fill="#66289A" transform="translate(333,234)"/>
<path d="M0 0 C0.66 0.66 1.32 1.32 2 2 C4.82957829 1.63723355 7.29084291 0.90305236 10 0 C10 2.31 10 4.62 10 7 C7.69 7 5.38 7 3 7 C3 8.98 3 10.96 3 13 C2.67 13 2.34 13 2 13 C2 10.69 2 8.38 2 6 C0.35 5.67 -1.3 5.34 -3 5 C-3 4.34 -3 3.68 -3 3 C-2.34 3 -1.68 3 -1 3 C-0.67 2.01 -0.34 1.02 0 0 Z " fill="#7B4184" transform="translate(668,432)"/>
<path d="M0 0 C3.19496956 0.49921399 6.1982808 1.32665761 9.25 2.375 C9.93578125 2.60960937 10.6215625 2.84421875 11.328125 3.0859375 C13 4 13 4 14 7 C9.38 7 4.76 7 0 7 C0 4.69 0 2.38 0 0 Z " fill="#9B91DD" transform="translate(354,438)"/>
<path d="M0 0 C1.1446875 0.2475 1.1446875 0.2475 2.3125 0.5 C5.03596236 1.09145396 5.03596236 1.09145396 8 1 C8.66 1.66 9.32 2.32 10 3 C9.9765625 5.3828125 9.9765625 5.3828125 9.625 8.125 C9.45871094 9.49011719 9.45871094 9.49011719 9.2890625 10.8828125 C9.14597656 11.93082031 9.14597656 11.93082031 9 13 C8.34 13 7.68 13 7 13 C7 10.69 7 8.38 7 6 C4.69 6 2.38 6 0 6 C0 4.02 0 2.04 0 0 Z " fill="#814987" transform="translate(581,439)"/>
<path d="M0 0 C1.32 0.33 2.64 0.66 4 1 C4 2.32 4 3.64 4 5 C3.01 5 2.02 5 1 5 C1 6.32 1 7.64 1 9 C1.66 9 2.32 9 3 9 C3.33 8.34 3.66 7.68 4 7 C4 7.99 4 8.98 4 10 C2.68 10 1.36 10 0 10 C0 9.34 0 8.68 0 8 C-1.03125 8.33 -2.0625 8.66 -3.125 9 C-6.48426709 9.9715192 -9.49106202 10.17116771 -13 10 C-13 9.01 -13 8.02 -13 7 C-8.71 7 -4.42 7 0 7 C0 4.69 0 2.38 0 0 Z " fill="#7C4684" transform="translate(643,294)"/>
<path d="M0 0 C0.99 0.33 1.98 0.66 3 1 C3 2.98 3 4.96 3 7 C5.64 7.33 8.28 7.66 11 8 C11 8.66 11 9.32 11 10 C7.18243176 11.37432457 3.92744671 10.67975039 0 10 C-0.19412181 8.52168779 -0.38012131 7.04230684 -0.5625 5.5625 C-0.66691406 4.73878906 -0.77132812 3.91507812 -0.87890625 3.06640625 C-0.91886719 2.38449219 -0.95882812 1.70257813 -1 1 C-0.67 0.67 -0.34 0.34 0 0 Z " fill="#948BD7" transform="translate(229,339)"/>
<path d="M0 0 C2.97 0 5.94 0 9 0 C8.34 1.32 7.68 2.64 7 4 C4.375 4.75 4.375 4.75 2 5 C2 5.66 2 6.32 2 7 C-2.95 7 -7.9 7 -13 7 C-13 6.67 -13 6.34 -13 6 C-8.71 6 -4.42 6 0 6 C0 4.02 0 2.04 0 0 Z " fill="#8781C7" transform="translate(215,212)"/>
<path d="M0 0 C1.98 0.99 1.98 0.99 4 2 C4 2.99 4 3.98 4 5 C4.763125 5 5.52625 5 6.3125 5 C9 6 9 6 10 7.84765625 C10.74668651 9.88309495 11.41515529 11.91262742 12 14 C10.35 14 8.7 14 7 14 C7 11.69 7 9.38 7 7 C4.69 7 2.38 7 0 7 C0 4.69 0 2.38 0 0 Z " fill="#9E58B8" transform="translate(588,205)"/>
<path d="M0 0 C1.32 0.33 2.64 0.66 4 1 C4 2.32 4 3.64 4 5 C5.65 4.67 7.3 4.34 9 4 C9 7.3 9 10.6 9 14 C8.34 14 7.68 14 7 14 C7 11.69 7 9.38 7 7 C4.69 7 2.38 7 0 7 C0 4.69 0 2.38 0 0 Z " fill="#998FDD" transform="translate(292,390)"/>
<path d="M0 0 C4.29 0 8.58 0 13 0 C13 1.65 13 3.3 13 5 C8.71 4.34 4.42 3.68 0 3 C0 2.01 0 1.02 0 0 Z " fill="#B364D1" transform="translate(678,115)"/>
<path d="M0 0 C1.65 0.33 3.3 0.66 5 1 C5.04898438 2.07121094 5.09796875 3.14242188 5.1484375 4.24609375 C5.22345294 5.64325639 5.2990013 7.0403905 5.375 8.4375 C5.4059375 9.14455078 5.436875 9.85160156 5.46875 10.58007812 C5.57280629 12.39239188 5.77919892 14.19817988 6 16 C6.66 16.33 7.32 16.66 8 17 C6.35 17 4.7 17 3 17 C3 12.38 3 7.76 3 3 C1.35 3 -0.3 3 -2 3 C-1.34 2.01 -0.68 1.02 0 0 Z " fill="#794582" transform="translate(571,422)"/>
<path d="M0 0 C0.33 0 0.66 0 1 0 C1 2.31 1 4.62 1 7 C-1.31 7 -3.62 7 -6 7 C-6 9.31 -6 11.62 -6 14 C-10.29 14 -14.58 14 -19 14 C-19 13.67 -19 13.34 -19 13 C-15.37 13 -11.74 13 -8 13 C-8.33 10.69 -8.66 8.38 -9 6 C-6.04335481 4.5216774 -3.25770263 4.93967217 0 5 C0 3.35 0 1.7 0 0 Z " fill="#75437F" transform="translate(704,411)"/>
<path d="M0 0 C1.65322266 0.01740234 1.65322266 0.01740234 3.33984375 0.03515625 C4.99693359 0.04869141 4.99693359 0.04869141 6.6875 0.0625 C7.54214844 0.07410156 8.39679688 0.08570312 9.27734375 0.09765625 C8.61734375 1.41765625 7.95734375 2.73765625 7.27734375 4.09765625 C3.97734375 4.09765625 0.67734375 4.09765625 -2.72265625 4.09765625 C-3.05265625 5.08765625 -3.38265625 6.07765625 -3.72265625 7.09765625 C-3.76519981 5.09810879 -3.76346408 3.09723989 -3.72265625 1.09765625 C-2.72265625 0.09765625 -2.72265625 0.09765625 0 0 Z " fill="#6A23A7" transform="translate(337.72265625,115.90234375)"/>
<path d="M0 0 C0.33 0 0.66 0 1 0 C1 2.64 1 5.28 1 8 C0.071875 8.12375 0.071875 8.12375 -0.875 8.25 C-3.18437567 8.81258459 -3.18437567 8.81258459 -4.25 11.0625 C-4.4975 11.701875 -4.745 12.34125 -5 13 C-5.99 12.67 -6.98 12.34 -8 12 C-7.3125 9.125 -7.3125 9.125 -6 6 C-4.35636866 5.27840576 -2.68949614 4.60648579 -1 4 C-0.11306697 1.95894361 -0.11306697 1.95894361 0 0 Z " fill="#7F3F83" transform="translate(677,294)"/>
<path d="M0 0 C0.99 0 1.98 0 3 0 C3 2.31 3 4.62 3 7 C5.31 7 7.62 7 10 7 C10 8.32 10 9.64 10 11 C9.01 11 8.02 11 7 11 C7 10.34 7 9.68 7 9 C5.5459375 9.0309375 5.5459375 9.0309375 4.0625 9.0625 C1 9 1 9 0 8 C-0.14115161 5.32941149 -0.04247107 2.67567762 0 0 Z " fill="#9D98E1" transform="translate(343,267)"/>
<path d="M0 0 C0.33 0 0.66 0 1 0 C1 1.98 1 3.96 1 6 C1.66 6 2.32 6 3 6 C3 6.66 3 7.32 3 8 C5.64 7.67 8.28 7.34 11 7 C11 7.66 11 8.32 11 9 C9.02 9.66 7.04 10.32 5 11 C5 10.34 5 9.68 5 9 C3.35 9.66 1.7 10.32 0 11 C-0.66 10.34 -1.32 9.68 -2 9 C-1.7578125 6.8359375 -1.7578125 6.8359375 -1.125 4.375 C-0.92132812 3.55773437 -0.71765625 2.74046875 -0.5078125 1.8984375 C-0.34023438 1.27195313 -0.17265625 0.64546875 0 0 Z " fill="#B85BD6" transform="translate(745,165)"/>
<path d="M0 0 C0.33 0 0.66 0 1 0 C1 1.98 1 3.96 1 6 C2.98 6 4.96 6 7 6 C7.33 6.99 7.66 7.98 8 9 C10.79172239 10.03316488 10.79172239 10.03316488 14.0625 10.6875 C15.71958984 11.06455078 15.71958984 11.06455078 17.41015625 11.44921875 C18.26480469 11.63097656 19.11945312 11.81273437 20 12 C20 12.33 20 12.66 20 13 C15.71 13 11.42 13 7 13 C6.67 11.02 6.34 9.04 6 7 C4.02 7 2.04 7 0 7 C0 4.69 0 2.38 0 0 Z " fill="#A35EC0" transform="translate(650,253)"/>
<path d="M0 0 C6.93 0.495 6.93 0.495 14 1 C14 1.99 14 2.98 14 4 C9.38 4 4.76 4 0 4 C0 2.68 0 1.36 0 0 Z " fill="#938AD3" transform="translate(236,352)"/>
<path d="M0 0 C0.66 0.66 1.32 1.32 2 2 C1.67 2.66 1.34 3.32 1 4 C1.639375 4.103125 2.27875 4.20625 2.9375 4.3125 C3.618125 4.539375 4.29875 4.76625 5 5 C5.33 5.99 5.66 6.98 6 8 C5 9 5 9 1.4375 9.0625 C0.303125 9.041875 -0.83125 9.02125 -2 9 C-2 6.69 -2 4.38 -2 2 C-1.34 2 -0.68 2 0 2 C0 1.34 0 0.68 0 0 Z " fill="#9085D6" transform="translate(190,299)"/>
<path d="M0 0 C0.33 0 0.66 0 1 0 C1 4.62 1 9.24 1 14 C-0.98 14 -2.96 14 -5 14 C-4.34 13.34 -3.68 12.68 -3 12 C-2.61360546 9.89659544 -2.61360546 9.89659544 -2.5 7.5625 C-2.26931817 4.06190316 -2.03849437 3.05774155 0 0 Z " fill="#9088C9" transform="translate(449,425)"/>
<path d="M0 0 C3.03869411 1.51934706 3.64410306 3.98004772 5 7 C5 7.66 5 8.32 5 9 C2.69 9 0.38 9 -2 9 C-2 6.69 -2 4.38 -2 2 C-1.34 2 -0.68 2 0 2 C0 1.34 0 0.68 0 0 Z " fill="#928BD6" transform="translate(252,354)"/>
<path d="M0 0 C1.5 1.3125 1.5 1.3125 3 3 C3 3.99 3 4.98 3 6 C4.65 6 6.3 6 8 6 C8 8.31 8 10.62 8 13 C12.29 13 16.58 13 21 13 C21 13.33 21 13.66 21 14 C16.38 14 11.76 14 7 14 C7 11.69 7 9.38 7 7 C4.69 7 2.38 7 0 7 C0 4.69 0 2.38 0 0 Z " fill="#9759B2" transform="translate(622,232)"/>
<path d="M0 0 C2.31 0 4.62 0 7 0 C7 2.64 7 5.28 7 8 C3.535 6.02 3.535 6.02 0 4 C0 2.68 0 1.36 0 0 Z " fill="#A65BC3" transform="translate(691,122)"/>
<path d="M0 0 C1.32 0.33 2.64 0.66 4 1 C3.03108808 6.37305699 3.03108808 6.37305699 1 9 C-3.24002295 10.64354425 -7.50555017 11.3844976 -12 12 C-12.33 11.01 -12.66 10.02 -13 9 C-9.04 8.34 -5.08 7.68 -1 7 C-0.67 4.69 -0.34 2.38 0 0 Z " fill="#65269B" transform="translate(277,164)"/>
<path d="M0 0 C4.62 0 9.24 0 14 0 C14 2.31 14 4.62 14 7 C13.34 7 12.68 7 12 7 C11.67 5.35 11.34 3.7 11 2 C10.06027344 2.03480469 10.06027344 2.03480469 9.1015625 2.0703125 C7.87566406 2.09738281 7.87566406 2.09738281 6.625 2.125 C5.81289063 2.14820313 5.00078125 2.17140625 4.1640625 2.1953125 C2 2 2 2 0 0 Z " fill="#955BAD" transform="translate(712,142)"/>
<path d="M0 0 C3.96 0 7.92 0 12 0 C12 1.98 12 3.96 12 6 C14.31 6 16.62 6 19 6 C19 6.33 19 6.66 19 7 C16.36 7 13.72 7 11 7 C11 6.34 11 5.68 11 5 C10.34 5 9.68 5 9 5 C8.67 3.68 8.34 2.36 8 1 C5.36 1.33 2.72 1.66 0 2 C0 1.34 0 0.68 0 0 Z " fill="#A861C1" transform="translate(748,171)"/>
<path d="M0 0 C2.64 0 5.28 0 8 0 C8 1.98 8 3.96 8 6 C5.69 5.34 3.38 4.68 1 4 C0.67 2.68 0.34 1.36 0 0 Z " fill="#928AD4" transform="translate(297,232)"/>
<path d="M0 0 C2.97 0 5.94 0 9 0 C9 1.65 9 3.3 9 5 C10.65 5.33 12.3 5.66 14 6 C14 6.66 14 7.32 14 8 C11.69 8 9.38 8 7 8 C7 5.69 7 3.38 7 1 C4.69 1 2.38 1 0 1 C0 0.67 0 0.34 0 0 Z " fill="#8279BF" transform="translate(257,369)"/>
<path d="M0 0 C0.33 0 0.66 0 1 0 C1 2.31 1 4.62 1 7 C-2.96 7 -6.92 7 -11 7 C-8 4 -8 4 -5.95703125 3.70703125 C-3.97135417 3.8046875 -1.98567708 3.90234375 0 4 C0 2.68 0 1.36 0 0 Z " fill="#5F2A91" transform="translate(394,239)"/>
<path d="M0 0 C2.475 0.495 2.475 0.495 5 1 C5 1.66 5 2.32 5 3 C7.64 3 10.28 3 13 3 C13 5.31 13 7.62 13 10 C12.67 10 12.34 10 12 10 C12 8.02 12 6.04 12 4 C11.07767578 4.14308594 11.07767578 4.14308594 10.13671875 4.2890625 C9.32847656 4.39992187 8.52023437 4.51078125 7.6875 4.625 C6.88699219 4.74101562 6.08648437 4.85703125 5.26171875 4.9765625 C3 5 3 5 0 3 C0 2.01 0 1.02 0 0 Z " fill="#807AC4" transform="translate(272,215)"/>
<path d="M0 0 C0.33 0 0.66 0 1 0 C1 1.65 1 3.3 1 5 C1.66 5 2.32 5 3 5 C3.33 6.98 3.66 8.96 4 11 C2.35 11 0.7 11 -1 11 C-1.02688151 9.35425434 -1.04634123 7.70838587 -1.0625 6.0625 C-1.07410156 5.14597656 -1.08570313 4.22945313 -1.09765625 3.28515625 C-1 1 -1 1 0 0 Z " fill="#8D84CE" transform="translate(313,400)"/>
<path d="M0 0 C2.97 0.495 2.97 0.495 6 1 C6.33 1.99 6.66 2.98 7 4 C2.03926578 5.32286246 -2.91111512 5.08893197 -8 5 C-8 4.67 -8 4.34 -8 4 C-5.69 4 -3.38 4 -1 4 C-0.67 2.68 -0.34 1.36 0 0 Z " fill="#7E4281" transform="translate(596,331)"/>
<path d="M0 0 C0.66 0.33 1.32 0.66 2 1 C2 2.98 2 4.96 2 7 C-0.31 7.33 -2.62 7.66 -5 8 C-5 6.68 -5 5.36 -5 4 C-4.0409375 3.8453125 -4.0409375 3.8453125 -3.0625 3.6875 C-2.381875 3.460625 -1.70125 3.23375 -1 3 C-0.67 2.01 -0.34 1.02 0 0 Z " fill="#6A26A1" transform="translate(372,252)"/>
<path d="M0 0 C1.98 0 3.96 0 6 0 C6.9765625 6.0546875 6.9765625 6.0546875 7 8 C6.34 8.66 5.68 9.32 5 10 C4.01 10 3.02 10 2 10 C2.33 9.01 2.66 8.02 3 7 C3.66 7 4.32 7 5 7 C5 6.34 5 5.68 5 5 C4.34 5 3.68 5 3 5 C3 4.01 3 3.02 3 2 C2.01 2 1.02 2 0 2 C0 1.34 0 0.68 0 0 Z " fill="#8F87D4" transform="translate(313,246)"/>
<path d="M0 0 C4.62 0 9.24 0 14 0 C14 1.65 14 3.3 14 5 C13.34 5 12.68 5 12 5 C12 4.01 12 3.02 12 2 C8.04 2 4.08 2 0 2 C0 1.34 0 0.68 0 0 Z " fill="#642C98" transform="translate(415,95)"/>
<path d="M0 0 C2.97 0.33 5.94 0.66 9 1 C8.01 2.485 8.01 2.485 7 4 C5.0546875 4.29296875 5.0546875 4.29296875 2.875 4.1875 C1.59625 4.125625 0.3175 4.06375 -1 4 C-0.67 2.68 -0.34 1.36 0 0 Z " fill="#897ED0" transform="translate(441,348)"/>
<path d="M0 0 C3 1 3 1 5 4 C6.93398926 4.50394656 6.93398926 4.50394656 9.0625 4.5625 C10.361875 4.706875 11.66125 4.85125 13 5 C13.33 5.66 13.66 6.32 14 7 C7.07 6.505 7.07 6.505 0 6 C0 4.02 0 2.04 0 0 Z " fill="#AB67C7" transform="translate(602,219)"/>
<path d="M0 0 C0.33 0.66 0.66 1.32 1 2 C1.66 2 2.32 2 3 2 C3 5.3 3 8.6 3 12 C2.01 12 1.02 12 0 12 C0 8.04 0 4.08 0 0 Z " fill="#BF63DE" transform="translate(568,176)"/>
<path d="M0 0 C4.62 0 9.24 0 14 0 C14 0.66 14 1.32 14 2 C12.73542969 2.07347656 12.73542969 2.07347656 11.4453125 2.1484375 C10.34960938 2.22320312 9.25390625 2.29796875 8.125 2.375 C6.48917969 2.47941406 6.48917969 2.47941406 4.8203125 2.5859375 C1.86953526 2.73253491 1.86953526 2.73253491 0 5 C0 3.35 0 1.7 0 0 Z " fill="#B264CC" transform="translate(581,102)"/>
<path d="M0 0 C1.65 0 3.3 0 5 0 C5.33 1.98 5.66 3.96 6 6 C4.02 6 2.04 6 0 6 C0 4.02 0 2.04 0 0 Z " fill="#9890D7" transform="translate(257,363)"/>
<path d="M0 0 C0.99 0 1.98 0 3 0 C3 1.32 3 2.64 3 4 C3.99 4 4.98 4 6 4 C6.33 4.99 6.66 5.98 7 7 C4.69 7 2.38 7 0 7 C0 4.69 0 2.38 0 0 Z " fill="#AA60C2" transform="translate(705,294)"/>
<path d="M0 0 C0.66 0.33 1.32 0.66 2 1 C1.3125 2.9375 1.3125 2.9375 0 5 C-2.5 5.625 -2.5 5.625 -5 6 C-5.66 6.66 -6.32 7.32 -7 8 C-7 6.02 -7 4.04 -7 2 C-4.69 2 -2.38 2 0 2 C0 1.34 0 0.68 0 0 Z " fill="#7D4683" transform="translate(581,347)"/>
<path d="M0 0 C0.99 0 1.98 0 3 0 C3 2.31 3 4.62 3 7 C1.02 7 -0.96 7 -3 7 C-2.34 6.67 -1.68 6.34 -1 6 C-1.0309375 4.7934375 -1.0309375 4.7934375 -1.0625 3.5625 C-1 1 -1 1 0 0 Z " fill="#7C4A88" transform="translate(709,404)"/>
<path d="M0 0 C0 0.99 0 1.98 0 3 C-1.8141927 2.71905418 -3.62635001 2.42493567 -5.4375 2.125 C-6.95150391 1.88136719 -6.95150391 1.88136719 -8.49609375 1.6328125 C-9.32238281 1.42398437 -10.14867187 1.21515625 -11 1 C-11.33 0.34 -11.66 -0.32 -12 -1 C-7.47907032 -2.45606519 -4.48351204 -1.27032841 0 0 Z " fill="#BC63DB" transform="translate(669,262)"/>
<path d="M0 0 C1.32 0.33 2.64 0.66 4 1 C3.01 1 2.02 1 1 1 C1 2.65 1 4.3 1 6 C-0.65 6.33 -2.3 6.66 -4 7 C-4.33 5.68 -4.66 4.36 -5 3 C-4.34 2.67 -3.68 2.34 -3 2 C-2.34 2.33 -1.68 2.66 -1 3 C-0.67 2.01 -0.34 1.02 0 0 Z " fill="#B85FD8" transform="translate(821,319)"/>
<path d="M0 0 C0.99 0 1.98 0 3 0 C3 1.32 3 2.64 3 4 C3.66 4 4.32 4 5 4 C5.33 4.99 5.66 5.98 6 7 C4.02 7 2.04 7 0 7 C0 4.69 0 2.38 0 0 Z " fill="#AA61C2" transform="translate(698,287)"/>
<path d="M0 0 C0.99 0.33 1.98 0.66 3 1 C3.33 1.99 3.66 2.98 4 4 C5.49985609 5.66710346 5.49985609 5.66710346 7 7 C4.69 7 2.38 7 0 7 C0 4.69 0 2.38 0 0 Z " fill="#AC67C5" transform="translate(643,246)"/>
<path d="M0 0 C0.33 0.66 0.66 1.32 1 2 C4.3 1.67 7.6 1.34 11 1 C11 2.65 11 4.3 11 6 C10.01 6 9.02 6 8 6 C7.67 5.34 7.34 4.68 7 4 C4.67843403 3.59270772 2.3431213 3.25561323 0 3 C0 2.01 0 1.02 0 0 Z " fill="#8D82D1" transform="translate(319,415)"/>
<path d="M0 0 C2.31 0 4.62 0 7 0 C7 0.66 7 1.32 7 2 C8.65 1.67 10.3 1.34 12 1 C11.67 1.66 11.34 2.32 11 3 C7.7 3 4.4 3 1 3 C0.67 2.01 0.34 1.02 0 0 Z " fill="#A69CDE" transform="translate(210,332)"/>
<path d="M0 0 C2.31 0 4.62 0 7 0 C7 1.32 7 2.64 7 4 C4.69 4 2.38 4 0 4 C0 2.68 0 1.36 0 0 Z " fill="#B167CB" transform="translate(829,304)"/>
<path d="M0 0 C2.5 1.8125 2.5 1.8125 5 4 C5 4.99 5 5.98 5 7 C3.35 7 1.7 7 0 7 C0 4.69 0 2.38 0 0 Z " fill="#AF69CC" transform="translate(678,273)"/>
<path d="M0 0 C2.31 0 4.62 0 7 0 C7 2.31 7 4.62 7 7 C5.35 6.67 3.7 6.34 2 6 C2.66 5.67 3.32 5.34 4 5 C4 4.34 4 3.68 4 3 C4.66 3 5.32 3 6 3 C6 2.34 6 1.68 6 1 C4.02 1 2.04 1 0 1 C0 0.67 0 0.34 0 0 Z " fill="#753D7B" transform="translate(712,328)"/>
<path d="M0 0 C3.3 0 6.6 0 10 0 C5.86621405 2.7558573 3.94796454 3.10756445 -1 3 C-0.67 2.01 -0.34 1.02 0 0 Z " fill="#824887" transform="translate(605,322)"/>
<path d="M0 0 C3.63 0 7.26 0 11 0 C11 1.65 11 3.3 11 5 C10.01 5 9.02 5 8 5 C8 3.68 8 2.36 8 1 C5.36 1 2.72 1 0 1 C0 0.67 0 0.34 0 0 Z " fill="#A46ABD" transform="translate(680,115)"/>
<path d="M0 0 C2.31 0 4.62 0 7 0 C7 1.65 7 3.3 7 5 C4.525 4.01 4.525 4.01 2 3 C2 2.34 2 1.68 2 1 C1.34 0.67 0.68 0.34 0 0 Z " fill="#B16CCE" transform="translate(663,102)"/>
<path d="M0 0 C0.99 0.33 1.98 0.66 3 1 C3 1.99 3 2.98 3 4 C2.34 4 1.68 4 1 4 C1 5.98 1 7.96 1 10 C-0.85064319 6.87703962 -1.29356154 4.62059232 -1 1 C-0.67 0.67 -0.34 0.34 0 0 Z " fill="#7972BF" transform="translate(229,339)"/>
<path d="M0 0 C1.98 0 3.96 0 6 0 C5.34 1.65 4.68 3.3 4 5 C2.68 4.67 1.36 4.34 0 4 C0 2.68 0 1.36 0 0 Z " fill="#7E4A86" transform="translate(616,315)"/>
<path d="M0 0 C1.98 0 3.96 0 6 0 C6 2.31 6 4.62 6 7 C5.34 7 4.68 7 4 7 C3.67 5.02 3.34 3.04 3 1 C2.01 0.67 1.02 0.34 0 0 Z " fill="#A15FBD" transform="translate(830,239)"/>
<path d="M0 0 C1.98 0.99 1.98 0.99 4 2 C4 3.32 4 4.64 4 6 C4.66 6.33 5.32 6.66 6 7 C3.03 6.505 3.03 6.505 0 6 C0 4.02 0 2.04 0 0 Z " fill="#6C2C9F" transform="translate(306,212)"/>
<path d="M0 0 C0.33 0 0.66 0 1 0 C1 2.31 1 4.62 1 7 C-0.98 7 -2.96 7 -5 7 C-4.54625 6.5875 -4.0925 6.175 -3.625 5.75 C-1.94049626 3.93591905 -1.00734029 2.24714373 0 0 Z " fill="#8981C9" transform="translate(456,418)"/>
<path d="M0 0 C2.31 0 4.62 0 7 0 C6.67 0.99 6.34 1.98 6 3 C3 4 3 4 0 3 C0 2.01 0 1.02 0 0 Z " fill="#8B85DE" transform="translate(448,420)"/>
<path d="M0 0 C0.33 1.32 0.66 2.64 1 4 C-0.98 4.33 -2.96 4.66 -5 5 C-5 4.01 -5 3.02 -5 2 C-2 0 -2 0 0 0 Z " fill="#BD61DA" transform="translate(835,300)"/>
<path d="M0 0 C0.66 0 1.32 0 2 0 C2 2.31 2 4.62 2 7 C1.01 7 0.02 7 -1 7 C-1.04254356 5.00045254 -1.04080783 2.99958364 -1 1 C-0.67 0.67 -0.34 0.34 0 0 Z " fill="#9F99E7" transform="translate(342,424)"/>
<path d="M0 0 C0.99 0 1.98 0 3 0 C3 1.65 3 3.3 3 5 C2.01 5.33 1.02 5.66 0 6 C-0.38218767 4.34385343 -0.71395102 2.67542976 -1 1 C-0.67 0.67 -0.34 0.34 0 0 Z " fill="#9E97DF" transform="translate(371,288)"/>
<path d="M0 0 C2.31 0 4.62 0 7 0 C7 2.31 7 4.62 7 7 C6.67 7 6.34 7 6 7 C6 5.35 6 3.7 6 2 C4.35 2.33 2.7 2.66 1 3 C0.67 2.01 0.34 1.02 0 0 Z " fill="#9757B1" transform="translate(671,108)"/>
<path d="M0 0 C1.98 0 3.96 0 6 0 C6 2.31 6 4.62 6 7 C5.38125 6.21625 4.7625 5.4325 4.125 4.625 C2.10141339 2.03162353 2.10141339 2.03162353 0 0 Z " fill="#897EC5" transform="translate(403,315)"/>
<path d="M0 0 C1.65 0 3.3 0 5 0 C5 1.65 5 3.3 5 5 C4.01 5 3.02 5 2 5 C2 4.01 2 3.02 2 2 C1.34 2 0.68 2 0 2 C0 1.34 0 0.68 0 0 Z " fill="#9189D0" transform="translate(335,260)"/>
<path d="M0 0 C2.02054804 1.64169528 4.02043058 3.30911778 6 5 C6 5.33 6 5.66 6 6 C4.02 6 2.04 6 0 6 C0 4.02 0 2.04 0 0 Z " fill="#622C8F" transform="translate(312,219)"/>
<path d="M0 0 C1.32 0 2.64 0 4 0 C4 2.31 4 4.62 4 7 C3.34 7 2.68 7 2 7 C1.34 4.69 0.68 2.38 0 0 Z " fill="#A664BD" transform="translate(770,184)"/>
<path d="M0 0 C2 1.3125 2 1.3125 4 3 C4 3.99 4 4.98 4 6 C2.68 6 1.36 6 0 6 C0 4.02 0 2.04 0 0 Z " fill="#AB69C6" transform="translate(740,322)"/>
<path d="M0 0 C1.98 0 3.96 0 6 0 C6 1.98 6 3.96 6 6 C5.67 5.01 5.34 4.02 5 3 C3.35 2.67 1.7 2.34 0 2 C0 1.34 0 0.68 0 0 Z " fill="#A865C3" transform="translate(795,205)"/>
<path d="M0 0 C1.65 0 3.3 0 5 0 C4.67 0.99 4.34 1.98 4 3 C3.34 3 2.68 3 2 3 C2 3.66 2 4.32 2 5 C1.34 5 0.68 5 0 5 C0 3.35 0 1.7 0 0 Z " fill="#AE65CA" transform="translate(561,136)"/>
<path d="M0 0 C1.65 0.33 3.3 0.66 5 1 C5.33 1.99 5.66 2.98 6 4 C5.34 4.66 4.68 5.32 4 6 C4 5.01 4 4.02 4 3 C2.35 2.67 0.7 2.34 -1 2 C-0.67 1.34 -0.34 0.68 0 0 Z " fill="#B95ED6" transform="translate(593,208)"/>
</svg>
